<?xml version="1.0" encoding="UTF-8" standalone="no"?>
<!-- Created with Inkscape (http://www.inkscape.org/) -->

<svg
   xmlns:dc="http://purl.org/dc/elements/1.1/"
   xmlns:cc="http://creativecommons.org/ns#"
   xmlns:rdf="http://www.w3.org/1999/02/22-rdf-syntax-ns#"
   xmlns:svg="http://www.w3.org/2000/svg"
   xmlns="http://www.w3.org/2000/svg"
   xmlns:sodipodi="http://sodipodi.sourceforge.net/DTD/sodipodi-0.dtd"
   xmlns:inkscape="http://www.inkscape.org/namespaces/inkscape"
   width="210mm"
   height="297mm"
   viewBox="0 0 744.09448819 1052.3622047"
   id="svg4136"
   version="1.1"
   inkscape:version="0.91 r13725"
   sodipodi:docname="boat.svg">
  <defs
     id="defs4138" />
  <sodipodi:namedview
     id="base"
     pagecolor="#ffffff"
     bordercolor="#666666"
     borderopacity="1.0"
     inkscape:pageopacity="0.0"
     inkscape:pageshadow="2"
     inkscape:zoom="0.35"
     inkscape:cx="-150.71429"
     inkscape:cy="520"
     inkscape:document-units="px"
     inkscape:current-layer="layer1"
     showgrid="false"
     inkscape:window-width="1600"
     inkscape:window-height="835"
     inkscape:window-x="0"
     inkscape:window-y="0"
     inkscape:window-maximized="1" />
  <metadata
     id="metadata4141">
    <rdf:RDF>
      <cc:Work
         rdf:about="">
        <dc:format>image/svg+xml</dc:format>
        <dc:type
           rdf:resource="http://purl.org/dc/dcmitype/StillImage" />
        <dc:title></dc:title>
      </cc:Work>
    </rdf:RDF>
  </metadata>
  <g
     inkscape:label="Layer 1"
     inkscape:groupmode="layer"
     id="layer1">
    <path
       style="fill:#000000"
       d="m 379.51653,972.4381 c -16.38427,-5.92 -20.32106,-11.3232 -26.61777,-36.53304 -3.26742,-13.0816 -6.08662,-29.8568 -9.22095,-54.86793 l -2.24721,-17.93207 -6.34387,-0.17112 c -61.66385,-1.66352 -132.3124,-4.88728 -206.90268,-9.44112 -17.90734,-1.09328 -35.327067,-1.98776 -38.710517,-1.98776 l -6.15173,0 0.41435,26.2 c 0.4464,28.22608 -0.0486,36.97304 -2.55108,45.07495 -2.87268,9.30065 -9.68611,15.06976 -17.84222,15.10744 l -3.8,0.0176 0,-43.2 0,-43.2 -10.8,0 c -6.66667,0 -10.8,-0.30616 -10.8,-0.8 0,-0.49384 4.13333,-0.8 10.8,-0.8 9.06667,0 10.8,-0.19256 10.8,-1.2 0,-0.66001 0.54,-1.2 1.2,-1.2 0.66,0 1.2,0.53999 1.2,1.2 0,0.99712 1.55556,1.2 9.2,1.2 8.66666,0 9.2,-0.0927 9.2,-1.6 0,-1.52048 -0.53334,-1.6 -10.73644,-1.6 l -10.73643,0 -0.48199,-2.2 c -0.58333,-2.66261 0.67465,-9.75084 2.28227,-12.85963 2.82036,-5.45396 10.83918,-10.27827 19.47259,-11.71513 l 3.4,-0.56588 0.0254,3.07032 c 0.022,2.66 0.16185,2.8909 1.04617,1.72779 0.56141,-0.7384 2.43996,-1.48788 4.17456,-1.66552 l 3.15383,-0.32298 -3.4,-0.13448 c -3.79682,-0.15018 -4.74699,-1.73448 -1.04024,-1.73448 1.29787,0 30.007867,-2.15931 63.799997,-4.79845 33.79213,-2.63915 62.25024,-4.79915 63.24024,-4.8 1.22046,-8e-4 1.8,0.47634 1.8,1.48277 0,1.77092 6.94044,1.05979 -64.66219,6.62539 -30.0642,2.33685 -54.293697,4.37165 -53.843347,4.52177 0.84061,0.2802 68.403897,-3.47847 75.848297,-4.21958 3.8998,-0.38824 4.32039,-0.2449 7.17168,2.44421 l 3.02891,2.85663 109.62832,-2.56086 c 60.29558,-1.40846 109.76526,-2.68077 109.93264,-2.82734 0.16737,-0.14658 -0.0992,-8.9601 -0.59225,-19.58562 l -0.89655,-19.31913 -16.90249,-17.5099 c -9.29637,-9.63044 -16.59307,-17.50989 -16.2149,-17.50989 0.37817,0 8.01208,7.29 16.96424,16.2 l 16.27664,16.2 -0.45732,-7.2 c -0.25152,-3.96 -0.68734,-12.53034 -0.96848,-19.0452 l -0.51116,-11.84521 -4.10102,0.46881 c -2.25556,0.25784 -25.16102,2.26735 -50.90102,4.46558 -25.74,2.19822 -50.94,4.3583 -56,4.80017 -5.06,0.44186 -21.8,1.87808 -37.2,3.19159 -15.4,1.3135 -38.14179,3.28281 -50.5373,4.37622 -23.84044,2.10299 -34.95296,2.32944 -71.60514,1.4592 l -22.14244,-0.52574 -0.53968,-3.92393 c -0.29682,-2.15817 -0.33809,-4.12552 -0.0917,-4.37189 0.4488,-0.4488 15.36129,-1.7234 124.11627,-10.6084 127.67136,-10.43042 168.00808,-13.78262 168.20414,-13.97868 0.11268,-0.11268 -2.13651,-52.91284 -4.99819,-117.3337 -5.88739,-132.53419 -16.35162,-324.34049 -18.8263,-345.08083 -0.88934,-7.4536 -1.69859,-13.60439 -1.79832,-13.66841 -0.0997,-0.064 -24.30133,-8.50912 -53.78133,-18.76686 -29.48,-10.25773 -53.81447,-18.97834 -54.0766,-19.37912 -0.93776,-1.43378 -22.81053,51.84628 -38.39189,93.51911 -4.80233,12.84398 -8.73151,23.65589 -8.73151,24.02647 0,0.37057 4.59,2.16125 10.2,3.9793 5.61,1.81804 27.66,8.95416 49,15.85806 21.34,6.90389 39.07826,12.81075 39.41836,13.12635 0.97368,0.90355 -1.74414,6.65677 -2.92973,6.20182 -1.98636,-0.76224 -96.89563,-31.9139 -97.58139,-32.02872 -1.06852,-0.17892 -6.29837,15.04427 -14.52647,42.284 -8.45405,27.98778 -26.88681,91.79124 -26.58109,92.00819 0.11017,0.0782 20.6712,6.47921 45.69118,14.22451 25.01998,7.7453 45.63141,14.22291 45.80318,14.39469 0.17178,0.17177 -0.18241,1.72088 -0.78708,3.44246 -0.82695,2.35443 -1.47208,3.06204 -2.60318,2.85527 -0.82708,-0.15119 -21.0639,-6.36119 -44.9707,-13.8 -23.9068,-7.43881 -43.91902,-13.52511 -44.47161,-13.52511 -2.17701,0 -37.25373,138.6744 -35.51622,140.41192 0.39353,0.39352 83.64787,30.5472 90.05475,32.61669 2.96016,0.95618 3.02919,1.19558 1.44067,4.99743 l -1.15933,2.77467 -7.44067,-2.68529 c -49.70165,-17.93697 -84.71699,-30.30578 -84.99807,-30.02471 -1.29787,1.29789 -14.9221,72.65555 -19.91563,104.30929 -2.23778,14.1852 -2.87061,16.84257 -4.06588,17.07353 -1.04615,0.20215 -1.30629,-0.11103 -0.99678,-1.2 0.23034,-0.81045 0.62113,-2.91353 0.86843,-4.67353 0.24729,-1.76 1.90734,-12.02 3.68901,-22.8 15.89555,-96.17634 41.22587,-199.57552 83.09586,-339.2 18.60407,-62.03928 52.63952,-148.49417 85.59953,-217.43501 21.64312,-45.26985 52.3655,-101.011699 56.24596,-102.051115 3.36514,-0.901387 6.2369,-0.585465 6.2369,0.686122 0,0.818 -0.82767,1.2039 -2.6,1.21225 -1.43,0.0067 -3.00385,0.276738 -3.49744,0.6 -1.07083,0.701304 -16.30394,27.121236 -26.63078,46.187753 -13.57669,25.06674 -49.8173,100.03587 -48.70399,100.75151 0.12771,0.0821 10.49221,3.69571 23.03221,8.03025 12.54,4.33456 35.86826,12.45021 51.84059,18.0348 25.88343,9.04993 29.01444,9.9761 28.8,8.51924 -0.20611,-1.40025 -7.49335,-4.16471 -50.83671,-19.28518 -33.5911,-11.71837 -50.59744,-18.01807 -50.6,-18.74389 -0.006,-1.56467 -0.0685,-1.58405 37.19612,11.46059 18.48,6.46902 40.97921,14.34279 49.99824,17.49726 15.85568,5.54565 16.41504,5.81482 16.90536,8.13541 1.2583,5.95534 0.24604,-2.27822 -6.47305,-52.65098 -3.9432,-29.56196 -9.35023,-70.48901 -12.01561,-90.949014 -2.66538,-20.459999 -5.04774,-38.189999 -5.29411,-39.399999 -0.42074,-2.066278 -0.27777,-2.2 2.35204,-2.2 2.41309,0 2.86163,0.304 3.246,2.2 0.8039,3.965462 13.06786,83.755383 18.96696,123.399993 3.29677,22.15584 6.18312,39.14484 6.72849,39.60388 0.52528,0.44214 10.06154,23.84214 21.19168,52.00001 11.13012,28.15786 20.47622,51.37611 20.76909,51.59612 0.29287,0.21999 29.28071,70.95999 64.41743,157.2 35.13672,86.24 64.09251,157.02963 64.3462,157.31029 0.25371,0.28067 9.28128,-2.80324 20.06128,-6.85312 10.78,-4.04988 31.48,-11.79588 46,-17.21333 14.52,-5.41746 29.2419,-10.93488 32.71534,-12.26096 l 6.31534,-2.41103 -0.51687,-13.68593 c -0.28427,-7.52726 -0.87441,-25.92592 -1.31143,-40.88592 -1.83032,-62.6564 -4.01198,-90.89211 -9.2719,-120 -14.27813,-79.01405 -50.80345,-129.52523 -118.33045,-163.64032 -32.06068,-16.19727 -75.68631,-29.01193 -122.4,-35.95397 -14.61907,-2.17252 -14.82046,-2.22154 -14.33388,-3.48956 0.75864,-1.97699 35.9352,3.99356 63.22207,10.73075 46.92585,11.58609 83.63129,27.91429 113.88317,50.66029 10.1789,7.65337 27.20506,24.2871 35.37002,34.55477 27.90946,35.09696 43.62479,79.88655 49.80182,141.93804 2.39371,24.04605 2.69108,30.35435 5.27975,112 0.4813,15.18 1.0173,28.03847 1.19113,28.57437 0.17382,0.53591 -0.0134,1.17802 -0.41615,1.4269 -0.40269,0.24889 -2.77682,3.58928 -5.27584,7.4231 -7.01314,10.75911 -14.23556,19.66163 -24.72209,30.47301 -20.03209,20.65263 -39.35748,34.12563 -55.75782,38.87244 -3.68664,1.06703 -4.46154,1.57827 -4.05415,2.67468 0.27701,0.74552 10.69802,26.35358 23.15781,56.90679 12.45979,30.55322 22.65416,56.01995 22.65416,56.59274 0,0.83898 -7.96001,1.08173 -40.94724,1.2487 l -40.94722,0.20727 5.14722,3.39275 5.14724,3.39275 -3.65844,0.007 c -2.96104,0.006 -4.71478,-0.66537 -9.2,-3.52125 l -5.54156,-3.52824 -10.8,-0.51703 c -16.52029,-0.79089 -43.22345,-2.75998 -54.75395,-4.03755 -5.69466,-0.63097 -10.44155,-1.0596 -10.54864,-0.95251 -0.10709,0.10708 0.0103,1.72303 0.26083,3.59097 0.35183,2.62308 0.84099,3.47378 2.14864,3.73671 0.93122,0.18724 42.91312,3.08414 93.29312,6.43755 50.38,3.3534 94.75,6.3089 98.6,6.56776 3.85,0.25888 7,0.71177 7,1.00645 0,0.64923 -13.0593,13.65843 -14.54652,14.49073 -4.1943,2.34725 -48.49352,13.78046 -69.05348,17.82206 -7.92,1.55688 -15.12,2.9872 -16,3.17848 -0.88,0.19129 27.08875,0.38952 62.15278,0.44057 41.53794,0.0608 63.92507,0.3716 64.24722,0.89279 0.32818,0.53105 -23.12512,0.80016 -69.75279,0.8004 l -70.24721,4e-4 -19.6,2.75584 c -32.93006,4.63016 -50.33372,6.05129 -98.64928,8.05512 -15.75712,0.65352 -28.98712,1.18824 -29.4,1.18824 -0.45159,0 -0.75118,9.9616 -0.75186,25 -0.002,33.29808 -0.94042,86.21129 -1.52878,86.1552 -0.25855,-0.0248 -3.18192,-1.02456 -6.4964,-2.22216 z m 5.52227,-75.93304 0.10405,-33 -20.4,0 -20.4,0 0,1.99024 c 0,3.32776 3.89026,32.82656 6.06772,46.00976 3.73967,22.64152 8.63876,40.3856 13.08684,47.39951 2.87774,4.53777 8.51138,8.48793 15.24544,10.68993 l 5.2,1.70031 0.49595,-20.89488 c 0.27277,-11.49216 0.54277,-35.74488 0.6,-53.89488 z M 69.635723,933.97458 c 6.31917,-2.86968 9.99985,-10.28656 11.34915,-22.86952 0.43122,-4.02136 0.58772,-18.76656 0.3545,-33.4 l -0.41757,-26.2 -9.48947,0 -9.48948,0 0,42 0,42 2.2,-0.0176 c 1.21,-0.01 3.68179,-0.69048 5.49287,-1.51288 z M 418.34285,859.90554 c 44.14286,-1.87504 67.10845,-3.63392 88.8,-6.8008 l 9.6,-1.4016 -54.4,-0.1116 c -29.92,-0.0616 -67.54,0.3168 -83.6,0.84048 -22.8442,0.74488 -45.046,0.7324 -102,-0.0568 -40.04,-0.55504 -87.02,-0.88784 -104.4,-0.73952 l -31.6,0.26968 33.2,1.83592 c 57.77785,3.19512 109.88507,5.40432 161.2,6.8344 23.35141,0.6508 58.83556,0.36512 83.2,-0.66984 z M 84.330603,849.30506 c -0.007,-0.33 -0.36123,-1.14 -0.78775,-1.8 -0.6271,-0.9704 -0.77785,-0.85552 -0.78775,0.6 -0.007,0.99 0.34775,1.8 0.78775,1.8 0.44,0 0.79448,-0.27 0.78775,-0.6 z m 91.212247,0.0614 c -2.42,-0.13344 -15.38,-0.8008 -28.8,-1.48304 -13.42,-0.68224 -32.29214,-1.76648 -41.93808,-2.40936 -9.645947,-0.64296 -17.835947,-1.16896 -18.199997,-1.16896 -0.36406,0 -0.66192,0.87792 -0.66192,1.95096 0,3.2036 2.33584,3.34528 55.199997,3.34976 21.34,0 36.82,-0.10584 34.4,-0.23936 z m 235.2,-0.67784 c 48.35451,-2.66632 91.59367,-6.54913 120.8,-10.84756 5.94,-0.87422 21.78,-3.2085 35.2,-5.18729 13.42,-1.97879 34.48,-5.04604 46.8,-6.81612 20.3954,-2.93031 26.80057,-4.19864 25.87544,-5.12377 -0.18222,-0.18222 -54.31874,1.84269 -120.30338,4.49981 l -119.97206,4.83109 -156.4,1.04504 c -86.02,0.57477 -156.489997,1.08333 -156.599997,1.13014 -0.11,0.0468 -0.2,2.2028 -0.2,4.7911 l 0,4.70601 5.8,0.50691 c 23.736537,2.07452 93.888117,5.36068 152.599997,7.14836 3.74,0.11384 37.76,0.2796 75.6,0.36824 52.99756,0.12416 73.8531,-0.11752 90.8,-1.052 z m 134.623,-1.22112 c 17.15339,-2.88984 34.28362,-6.38287 46.977,-9.57897 16.57,-4.17221 40.23405,-11.09655 41.12624,-12.03396 0.65172,-0.68474 0.26385,-0.80038 -1.52624,-0.45505 -1.32,0.25465 -15.9,2.44253 -32.4,4.86196 -16.5,2.41942 -37.38,5.51072 -46.4,6.86954 -34.46392,5.19183 -59.6741,8.06864 -97.6,11.1376 l -18,1.45648 46.67724,0.09 46.67724,0.09 14.46852,-2.4376 z m -464.222997,-14.2774 0,-11.11497 -3.27108,0.73497 c -10.1391,2.2781 -15.85476,8.05591 -17.10893,17.29496 l -0.57013,4.2 10.47507,0 10.47507,0 0,-11.11496 z m 175.599997,-4.53308 121.6,-0.45753 131.98045,-5.15625 c 106.53195,-4.16202 132.19524,-5.37102 133.09434,-6.27012 1.51625,-1.51625 19.40758,-0.15421 -160.44559,-12.21446 l -44.97078,-3.01556 -4.62922,2.26876 c -5.03674,2.4685 -14.08057,8.6827 -21.02353,14.44569 -2.41688,2.00613 -5.02688,3.64751 -5.8,3.64751 -0.79571,0 -1.41671,0.6075 -1.43111,1.4 -0.0233,1.28216 -0.12197,1.27249 -1.17212,-0.11476 -1.12423,-1.48512 -3.30017,-1.46461 -111.24614,1.049 l -110.09949,2.56376 -2.65931,-2.7382 c -2.43378,-2.50599 -2.98746,-2.71181 -6.52841,-2.42689 -2.12801,0.17123 -22.56065,1.38293 -45.40589,2.69267 -22.84524,1.30974 -41.699707,2.54426 -41.898827,2.74338 -0.19912,0.19912 -0.13092,0.96432 0.15156,1.70045 0.4704,1.22582 2.5483,1.29643 24.698827,0.83925 13.30188,-0.27454 78.90524,-0.70506 145.78524,-0.9567 z m 159.59938,-8.82283 c 0.004,-0.46205 14.12781,-11.01187 16.8709,-12.6018 3.0425,-1.76346 4.65034,-2.12733 9.4,-2.12733 3.65438,0 5.72972,0.32064 5.72972,0.88526 0,0.4869 -2.57504,3.5409 -5.7223,6.7867 -4.04907,4.17581 -6.44678,6.01719 -8.2,6.29733 -2.03132,0.32459 -18.08042,0.99914 -18.07832,0.75984 z m 17.62009,-1.92135 c 2.92882,-0.81368 13.23427,-10.48738 12.23586,-11.48578 -1.13674,-1.13675 -7.68896,-0.43704 -10.88721,1.16264 -3.14684,1.57397 -14.96812,10.10348 -14.96812,10.80009 0,0.65523 10.92076,0.27279 13.61947,-0.47695 z m -341.819467,5.84075 c -0.77,-0.20121 -2.03,-0.20121 -2.8,0 -0.77,0.20123 -0.14,0.36586 1.4,0.36586 1.54,0 2.17,-0.16463 1.4,-0.36586 z m 8.014317,-2.42016 c -1.202117,-0.18253 -3.362117,-0.18621 -4.799997,-0.008 -1.43788,0.17805 -0.45432,0.3274 2.18568,0.33189 2.639997,0.005 3.816437,-0.14119 2.614317,-0.32373 z m 10.4,-0.8 c -1.20212,-0.18254 -3.36212,-0.18621 -4.8,-0.008 -1.43788,0.17805 -0.45432,0.3274 2.18568,0.33189 2.64,0.005 3.81644,-0.14118 2.61432,-0.32373 z m 9.6,-0.8 c -1.20212,-0.18253 -3.36212,-0.18621 -4.8,-0.008 -1.43788,0.17805 -0.45432,0.3274 2.18568,0.33189 2.64,0.005 3.81644,-0.14119 2.61432,-0.32373 z m 10.4,-0.8 c -1.20212,-0.18253 -3.36212,-0.18621 -4.8,-0.008 -1.43788,0.17805 -0.45432,0.3274 2.18568,0.33189 2.64,0.005 3.81644,-0.14119 2.61432,-0.32373 z m 284.36322,-5.77495 c 4.43246,-3.49062 11.07196,-8.03759 14.75445,-10.10438 l 6.69542,-3.7578 -0.52208,-4.09562 c -0.28714,-2.25259 -0.57654,-4.16886 -0.6431,-4.25835 -0.0666,-0.0895 -3.43779,-0.60433 -7.49163,-1.14406 l -7.3706,-0.98133 0,-25.54914 0,-25.54914 -5.4,0.5122 c -2.97,0.28172 -7.11,0.71744 -9.2,0.96828 l -3.8,0.45606 0.0228,4.92493 c 0.0125,2.70871 0.36089,11.56877 0.77416,19.68904 l 0.7514,14.76411 11.22584,11.2459 c 6.17417,6.18524 11.2258,11.77656 11.2258,12.42516 0,0.6486 -5.07175,-3.8559 -11.27054,-10.01 l -11.27053,-11.18928 0.46163,8.8 c 0.2539,4.84 0.68894,13.39 0.96676,19 0.27782,5.61 0.84849,10.2 1.26816,10.2 0.41967,0 4.3896,-2.85596 8.82206,-6.34658 z m -273.96322,4.97495 c -1.20212,-0.18253 -3.36212,-0.18621 -4.8,-0.008 -1.43788,0.17805 -0.45432,0.3274 2.18568,0.33189 2.64,0.005 3.81644,-0.14119 2.61432,-0.32373 z m 10.4,-0.8 c -1.20212,-0.18253 -3.36212,-0.18621 -4.8,-0.008 -1.43788,0.17805 -0.45432,0.3274 2.18568,0.33189 2.64,0.005 3.81644,-0.14119 2.61432,-0.32373 z m 10.4,-0.8 c -1.20212,-0.18254 -3.36212,-0.18621 -4.8,-0.008 -1.43788,0.17805 -0.45432,0.3274 2.18568,0.33189 2.64,0.005 3.81644,-0.14118 2.61432,-0.32373 z m 10.4,-0.8 c -1.20212,-0.18253 -3.36212,-0.18621 -4.8,-0.008 -1.43788,0.17805 -0.45432,0.3274 2.18568,0.33189 2.64,0.005 3.81644,-0.14119 2.61432,-0.32373 z m 9.58568,-0.80137 c -1.21,-0.18331 -3.19,-0.18331 -4.4,0 -1.21,0.18329 -0.22,0.33327 2.2,0.33327 2.42,0 3.41,-0.14998 2.2,-0.33327 z m 10.4,-0.8 c -1.21,-0.18331 -3.19,-0.18331 -4.4,0 -1.21,0.18329 -0.22,0.33327 2.2,0.33327 2.42,0 3.41,-0.14998 2.2,-0.33327 z m 11.21432,-0.79863 c -1.20212,-0.18253 -3.36212,-0.18621 -4.8,-0.008 -1.43788,0.17805 -0.45432,0.3274 2.18568,0.33189 2.64,0.005 3.81644,-0.14118 2.61432,-0.32373 z m 9.6,-0.8 c -1.20212,-0.18253 -3.36212,-0.18621 -4.8,-0.008 -1.43788,0.17805 -0.45432,0.3274 2.18568,0.33189 2.64,0.005 3.81644,-0.14118 2.61432,-0.32373 z m 320.40656,-11.82837 c -2.28677,-1.54 -4.79531,-2.8 -5.57452,-2.8 -1.95092,0 6.10937,5.49952 8.14296,5.55592 1.06136,0.0294 0.20816,-0.88604 -2.56844,-2.75592 z m -87.68787,-4.93527 c -0.55333,-3.40984 -1.55009,-4.23561 -5.13301,-4.25249 -2.1698,-0.0102 -2.5982,0.2856 -2.58908,1.78776 0.0274,4.52627 0.76967,5.4 4.58705,5.4 l 3.61137,0 -0.47633,-2.93527 z m 73.86699,-0.58248 c 0,-0.17476 -3.51,-2.58765 -7.8,-5.36197 -4.29,-2.77432 -20.50824,-13.43134 -36.04052,-23.68226 -15.53228,-10.25091 -28.38873,-18.63802 -28.56989,-18.63802 -0.18117,0 -0.11088,2.34 0.15619,5.2 0.41918,4.48893 0.30567,5.2 -0.8301,5.2 -0.9876,0 -1.31487,0.7481 -1.31242,3 0.005,4.1206 2.26114,28.33107 2.67975,28.74968 0.84332,0.84331 42.91555,4.48635 61.31699,5.30944 2.86,0.12792 6.37,0.30196 7.8,0.38673 1.43,0.0848 2.6,0.0112 2.6,-0.1636 z m 0.39145,-3.44855 c -28.07465,-18.91054 -72.05239,-47.19094 -72.29489,-46.49006 -0.16689,0.48233 0.19311,1.16264 0.8,1.51179 0.60689,0.34915 17.48344,11.44342 37.50344,24.65394 20.02,13.21052 37.11616,24.03522 37.99145,24.05488 0.98949,0.0222 -0.52353,-1.38887 -4,-3.73055 z m 90.59804,2.3663 c -0.29112,-1.02632 -50.42217,-124.1487 -58.6074,-143.94036 l -1.05061,-2.54036 -17.06574,6.79056 c -31.84698,12.6721 -87.41368,32.29016 -91.45948,32.29016 -0.66345,0 -1.20626,-0.45692 -1.20626,-1.01538 0,-1.52562 44.20341,-19.84241 86.4,-35.802 10.78,-4.07721 19.87224,-7.6515 20.205,-7.94286 0.496,-0.43432 -123.55138,-306.0528 -124.68295,-307.18438 -0.19236,-0.19235 -0.24658,49.3065 -0.12049,109.99744 l 0.22923,110.34718 4.15833,35.2 c 2.28709,19.36 6.17085,54.63252 8.63058,78.38336 3.73538,36.06828 4.69979,43.39536 5.85327,44.47 1.0692,0.99611 1.707,4.34153 2.82475,14.81662 0.79406,7.44151 1.50191,13.58802 1.573,13.65893 0.0711,0.0709 18.48928,12.21069 40.92928,26.9773 l 40.8,26.84839 41.4933,0.0227 c 39.14152,0.0214 41.4708,-0.0566 41.09619,-1.3773 z m -165.74049,-8.4 c -0.24696,-1.87 -0.82465,-7.9 -1.28376,-13.4 -2.99064,-35.82762 -10.95385,-114.99663 -16.6971,-166 l -3.87362,-34.4 -0.0973,27.27655 c -0.0956,26.79741 -0.0346,27.90056 3.46869,62.8 3.55023,35.3668 7.28603,76.18141 9.62205,105.12345 0.67477,8.36 1.42557,16.73 1.66844,18.6 l 0.4416,3.4 3.6,0 3.6,0 -0.44904,-3.4 z m -9.68855,0 c -0.18643,-1.43 -1.07709,-12.14 -1.97926,-23.8 -0.90216,-11.66 -1.81386,-22.01 -2.02599,-23 -0.40227,-1.87737 -2.69433,-2.33045 -6.5552,-1.29577 l -1.8,0.48237 0,24.25768 0,24.25767 3.8,0.51195 c 2.09,0.28157 4.16,0.63521 4.6,0.78586 0.44,0.15066 1.58736,0.30234 2.5497,0.33708 1.51934,0.0549 1.70508,-0.27915 1.41075,-2.53684 z m 8.83377,-50.58192 c -1.25929,-11.22995 -2.56052,-20.41808 -2.89162,-20.41808 -0.33111,0 -0.43632,1.17 -0.23382,2.6 0.57683,4.07336 3.52722,35.97367 3.52933,38.16 0.002,1.50354 0.22125,1.74064 0.94381,1.01808 0.72256,-0.72256 0.40869,-5.69702 -1.3477,-21.36 z m -215.19422,16.9414 c 22.88,-2.03356 69.32,-6.05769 103.2,-8.94252 33.88,-2.88482 63.13054,-5.44093 65.0012,-5.68024 l 3.40121,-0.43512 -0.51233,-4.5508 c -0.28177,-2.50294 -0.60388,-4.66237 -0.7158,-4.79873 -0.19927,-0.24281 -6.01144,0.21578 -74.37428,5.8683 -45.52956,3.76456 -176.81667,14.4691 -197.6,16.11139 -9.24,0.73012 -17.10577,1.59293 -17.47947,1.91734 -0.37371,0.32441 -0.44255,1.33632 -0.15297,2.24869 0.49441,1.55774 1.21845,1.67572 11.87947,1.93558 6.24413,0.15221 23.59297,0.21976 38.55297,0.15012 25.21196,-0.11736 30.24052,-0.39685 68.8,-3.82401 z m 186.2,-16.18933 5.4,-0.49751 0,-4.82261 0,-4.82263 -8.2,0.54346 c -11.39268,0.75504 -11,0.55693 -11,5.54971 0,2.31702 0.26244,4.4752 0.5832,4.79596 0.32076,0.32077 2.21076,0.39599 4.2,0.16716 1.98924,-0.22882 6.0468,-0.63992 9.0168,-0.91354 z m 12.3497,-1.15923 c 0.63451,-0.007 0.81644,-1.00656 0.54818,-3.01092 -0.83256,-6.22046 -1.05803,-6.71759 -2.92616,-6.45194 -1.58713,0.22569 -1.79682,0.7837 -2.0126,5.35593 -0.23516,4.98288 -0.19719,5.09229 1.6,4.61093 1.01248,-0.2712 2.26824,-0.498 2.79058,-0.504 z m 1.05036,-26.93367 c -0.94165,-10.05249 -2.54098,-26.37725 -3.55407,-36.27725 l -1.84199,-18 -0.102,34.6 -0.102,34.6 3.2,0 c 2.93333,0 3.2,0.17777 3.2,2.13333 0,1.17333 0.20524,1.9281 0.45608,1.67725 0.25084,-0.25084 -0.31436,-8.68084 -1.25602,-18.73333 z m -10.96241,15.78636 3.03767,-0.0636 -0.26816,-52.2 -0.26816,-52.2 -4.1737,-36.21748 C 408.94621,524.21052 404.40418,485.69006 403.91527,482.8734 l -0.45681,-2.63167 -6.55781,0.23167 -6.5578,0.23166 0.219,6 c 0.73268,20.07315 9.83748,226.34502 10.22314,231.60843 l 0.46957,6.40843 6.54414,-0.54482 c 3.59928,-0.29965 7.91109,-0.57344 9.5818,-0.60843 z m 153.21949,-44.87338 c 2.01716,-0.0146 13.07769,-5.01589 19.5918,-8.85879 14.24087,-8.40116 35.99349,-27.85739 48.49636,-43.37666 5.66958,-7.03741 14.59825,-19.87791 14.14046,-20.33569 -0.31949,-0.31949 -17.5182,6.55558 -50.88576,20.34124 -41.74532,17.24689 -48.40292,20.17949 -48.16443,21.21592 0.12957,0.56306 3.16304,8.27598 6.74105,17.13984 5.56528,13.78693 6.66678,15.95479 7.62157,15 0.61385,-0.61386 1.72037,-1.12049 2.45895,-1.12586 z m -86.54117,-8.01768 c 16.45205,-5.79766 64.68433,-24.3309 65.81736,-25.29031 0.18333,-0.15523 0.11928,-0.49629 -0.14233,-0.75791 -0.26161,-0.26161 -3.89962,0.80698 -8.08446,2.37466 -25.56519,9.57693 -68.54066,26.61988 -69.29,27.47859 -0.2291,0.26253 0.17565,0.26579 0.89943,0.007 0.72379,-0.25857 5.58379,-1.97408 10.8,-3.81227 z M 228.34285,653.62394 c 0,-0.70036 -12.74964,-5.66817 -36.2,-14.10512 -19.91,-7.16321 -40.11056,-14.44815 -44.89012,-16.18877 -6.17589,-2.24913 -8.93794,-2.91694 -9.54667,-2.30821 -0.4711,0.4711 -0.70055,1.00131 -0.50988,1.17824 0.42647,0.39575 89.70995,32.40686 90.54667,32.464 0.33,0.0226 0.6,-0.44553 0.6,-1.04014 z m 333.8534,-13.25562 c 4.69689,-1.9452 8.42123,-3.6553 8.27632,-3.80021 -0.5191,-0.51909 -18.12972,6.40804 -18.12972,7.13133 0,0.40642 0.29556,0.61895 0.6568,0.47228 0.36125,-0.14666 4.49972,-1.85819 9.1966,-3.8034 z m 11.7466,-4.86326 c 0.66,-0.42653 0.84,-0.7755 0.4,-0.7755 -0.44,0 -1.34,0.34897 -2,0.7755 -0.66,0.42652 -0.84,0.77549 -0.4,0.77549 0.44,0 1.34,-0.34897 2,-0.77549 z M 417.58034,525.60962 c -1.5317,-12.81751 -3.39913,-28.34813 -4.14982,-34.51249 l -1.36491,-11.20792 -3.08151,0.29387 c -2.97133,0.28337 -3.06581,0.38375 -2.64259,2.80792 0.56086,3.21251 9.27594,77.8636 11.73444,100.51406 l 1.8669,17.2 0.2112,-25.89544 c 0.20592,-25.24568 0.14133,-26.48019 -2.57371,-49.2 z m -17.6157,-250.98305 c -11.21144,-28.33684 -20.39284,-51.24328 -20.40311,-50.90321 -0.0102,0.34007 2.84168,20.50007 6.33766,44.8 11.08094,77.02137 21.07166,151.37161 29.78982,221.69383 l 4.25384,34.31214 0.20311,-99.19063 0.20311,-99.19063 -20.38443,-51.5215 z M 264.142,500.5076 c 0.16908,-0.50725 -1.8962,-1.56885 -4.75,-2.44161 -2.77703,-0.84929 -22.52765,-6.99293 -43.89025,-13.65254 -21.3626,-6.65962 -39.2726,-12.1084 -39.8,-12.1084 -0.5274,0 -0.9589,0.46592 -0.9589,1.03536 0,0.66589 12.63224,4.95876 35.4,12.03013 19.47,6.04713 39.18,12.21655 43.8,13.70982 8.67776,2.80482 9.69262,2.94683 10.19915,1.42724 z m 138.92641,-25.20255 c -0.2056,-1.43 -3.05217,-24.01999 -6.3257,-50.19999 -6.87008,-54.94345 -16.24361,-127.04558 -16.74445,-128.80001 -0.18841,-0.65999 -0.17394,1.68 0.0322,5.2 0.2061,3.52 2.32983,41.68 4.71942,84.8 2.38957,43.12 4.56788,81.37 4.84066,85 l 0.49598,6.60001 6.67789,0 6.67788,0 -0.37384,-2.60001 z m 8.47444,1.58471 c 0,-0.55841 -1.44932,-12.34841 -3.22072,-26.2 -12.91884,-101.02042 -28.30324,-209.09995 -47.20764,-331.64624 -4.8244,-31.273841 -8.80007,-57.373841 -8.8348,-57.999997 -0.0358,-0.644748 -0.22192,-0.753495 -0.42924,-0.25076 -0.33518,0.812792 4.71238,40.173757 17.32651,135.112287 4.84915,36.49656 5.60622,41.42407 5.31598,34.6 -0.0889,-2.09 0.11097,-3.8 0.44414,-3.8 0.33317,0 0.6179,0.09 0.63273,0.2 0.0148,0.11 0.53762,7.79425 1.16176,17.07611 0.6784,10.08873 3.71668,36.4723 7.55437,65.6 7.14917,54.26159 16.62375,128.2871 19.24007,150.3239 2.29309,19.31427 1.91108,18 5.23208,18 1.71684,0 2.78476,-0.38936 2.78476,-1.0153 z M 314.54452,363.31007 c -0.18242,-0.54724 -14.16242,-5.49831 -31.06667,-11.00239 -66.76645,-21.73937 -66.335,-21.60842 -66.335,-20.13361 0,0.36796 4.23,1.99362 9.4,3.61259 5.17,1.61896 26.68,8.68427 47.8,15.70068 21.12,7.01641 38.88,12.77075 39.46666,12.78741 0.58667,0.0166 0.91742,-0.41744 0.73501,-0.96468 z m -24.93816,423.79295 c -4.70115,-28.23226 -5.918,-37.83464 -4.20697,-33.19796 0.3765,1.02024 10.94346,63.95004 10.94346,65.17192 0,0.23544 -0.30173,0.42808 -0.6705,0.42808 -0.36878,0 -3.09847,-14.58092 -6.06599,-32.40204 z m 327.72507,17.62112 c -1.42372,-2.88716 -2.57088,-5.69257 -2.54924,-6.23423 0.0217,-0.54167 1.30168,1.47504 2.84453,4.48158 1.54284,3.00653 2.69,5.81194 2.54924,6.23424 -0.14077,0.42229 -1.4208,-1.59443 -2.84453,-4.48159 z M 303.14285,320.03187 c -14.25892,-4.71392 -23.14401,-17.98473 -21.61299,-32.28121 2.23168,-20.83914 24.30293,-33.21212 43.34728,-24.3002 23.30107,10.90389 22.97841,44.19385 -0.53429,55.12384 -5.27659,2.45284 -15.96632,3.1878 -21.2,1.45757 z m 371.6,-273.726813 c 0,-1.244444 0.45333,-2 1.2,-2 0.74666,0 1.2,0.755556 1.2,2 0,1.244444 -0.45334,2 -1.2,2 -0.74667,0 -1.2,-0.755556 -1.2,-2 z"
       id="path4749"
       inkscape:connector-curvature="0" />
  </g>
</svg>
