<svg height="512pt" viewBox="-36 0 512 512.01322" width="512pt" xmlns="http://www.w3.org/2000/svg"><path d="m220.324219 70.621094-17.652344-17.65625 8.824219-52.964844h35.3125l8.828125 44.136719zm0 0" fill="#2c3e50"/><g fill="#e64c3c"><path d="m40.332031 97.457031 47.578125 17.300781 8.121094 43.609376c-1.636719.628906-3.441406.691406-5.117188.175781l-49.613281-15.09375c-4.066406-1.167969-6.730469-5.054688-6.355469-9.269531.53125-6.796876 2.121094-18.714844 5.386719-36.722657zm0 0"/><path d="m405.792969 133.914062c.375 4.214844-2.289063 8.101563-6.355469 9.269532l-49.699219 15.359375c-1.738281.519531-3.597656.457031-5.296875-.175781-.257812-.0625-.5-.183594-.707031-.351563l9.003906-43.257813 47.140625-19.859374c3.53125 19.332031 5.296875 31.953124 5.914063 39.015624zm0 0"/><path d="m186.339844 486.398438-7.945313 20.128906c-1.71875 4.195312-6.335937 6.410156-10.679687 5.121094l-73.449219-26.132813c-4.402344-1.285156-7.0625-5.753906-6.089844-10.238281l9.445313-43.433594 52.082031-43.429688zm0 0"/><path d="m346.558594 485.515625-73.265625 26.132813c-4.347657 1.289062-8.964844-.925782-10.683594-5.121094l-8.03125-20.304688 36.367187-71.324218 52.171876 16.945312 9.535156 43.433594c.890625 4.46875-1.738282 8.890625-6.09375 10.238281zm0 0"/></g><path d="m343.117188 431.84375-88.539063 54.378906-26.132813-65.851562c-1.402343-3.25-4.609374-5.34375-8.148437-5.324219s-6.722656 2.148437-8.09375 5.410156l-25.863281 65.941407-88.71875-54.554688 28.777344-131.707031 85.097656-26.480469 102.753906 26.480469zm0 0" fill="#2c2f38"/><path d="m314.25 300.136719h-187.851562l3.269531-15.003907c1.570312-7.632812 2.136719-15.4375 1.675781-23.21875l-.351562-5.914062 80.503906-44.136719 98.164062 44.136719-.351562 5.914062c-.460938 7.78125.101562 15.585938 1.675781 23.21875zm0 0" fill="#2c3e50"/><path d="m399.878906 94.898438-56.144531 63.117187c-1.375-.539063-2.570313-1.457031-3.441406-2.648437l-22.863281-31.78125-7.769532 132.414062h-115.816406l26.480469-185.378906 3.089843-8.210938 23.394532-62.410156h17.832031c4.773437.0078125 8.640625 3.878906 8.652344 8.652344v9.003906c0 4.875 3.949219 8.828125 8.824219 8.828125h61.792968c17.65625 0 44.140625 8.824219 52.96875 52.964844 1.144532 5.558593 2.117188 10.769531 3 15.449219zm0 0" fill="#464f5d"/><path d="m220.324219 52.964844v203.035156h-89.332031l-7.769532-132.414062-22.863281 31.78125c-1.066406 1.453124-2.589844 2.507812-4.328125 3l-55.699219-60.910157c.96875-5.386719 2.117188-11.386719 3.441407-18.007812 8.828124-44.140625 35.3125-52.964844 52.964843-52.964844h61.792969c4.875 0 8.828125-3.953125 8.828125-8.828125v-9.003906c.011719-4.773438 3.878906-8.6445315 8.652344-8.652344h35.484375zm0 0" fill="#2c2f38"/><path d="m254.136719 93.132812c-1.625 2.464844-4.375 3.957032-7.328125 3.96875-1.734375.023438-3.433594-.503906-4.855469-1.5l-21.628906-14.386718v-10.59375l3.089843-8.210938c.628907.207032 1.226563.503906 1.765626.882813l26.484374 17.65625c1.957032 1.273437 3.320313 3.28125 3.785157 5.574219.464843 2.289062-.007813 4.667968-1.3125 6.609374zm0 0" fill="#2c3e50"/><path d="m440.644531 256.371094c0 19.296875-15.644531 34.9375-34.941406 34.9375-19.292969 0-34.9375-15.640625-34.9375-34.9375 0-13.558594 17.230469-50.316406 27.496094-66.578125 1.621093-2.539063 4.429687-4.078125 7.441406-4.078125 3.015625 0 5.820313 1.539062 7.441406 4.078125 10.269531 16.269531 27.5 53.019531 27.5 66.578125zm0 0" fill="#90bae1"/><path d="m431.453125 398.1875c0 14.21875-11.527344 25.75-25.75 25.75-14.21875 0-25.75-11.53125-25.75-25.75 3.265625-17.398438 9.410156-34.125 18.1875-49.496094 1.59375-2.65625 4.464844-4.28125 7.5625-4.28125s5.96875 1.625 7.566406 4.28125c8.773438 15.371094 14.921875 32.097656 18.183594 49.496094zm0 0" fill="#b0d3f0"/><path d="m69.886719 256.371094c0 19.296875-15.644531 34.9375-34.941407 34.9375-19.296874 0-34.9374995-15.640625-34.9374995-34.9375 0-13.558594 17.2304685-50.582032 27.4960935-66.851563 1.621094-2.542969 4.429688-4.078125 7.441406-4.078125 3.015626 0 5.820313 1.535156 7.441407 4.078125 10.269531 16.269531 27.5 53.292969 27.5 66.851563zm0 0" fill="#90bae1"/><path d="m60.695312 398.1875c0 14.21875-11.527343 25.75-25.75 25.75-14.21875 0-25.75-11.53125-25.75-25.75 3.265626-17.398438 9.410157-34.125 18.1875-49.496094 1.59375-2.65625 4.464844-4.28125 7.5625-4.28125 3.097657 0 5.96875 1.625 7.566407 4.28125 8.773437 15.371094 14.921875 32.097656 18.183593 49.496094zm0 0" fill="#b0d3f0"/></svg>